<svg id="Layer_1" data-name="Layer 1" xmlns="http://www.w3.org/2000/svg" xmlns:xlink="http://www.w3.org/1999/xlink" viewBox="0 0 227.91 67.62"><defs><style>.cls-1,.cls-2{fill:url(#linear-gradient);}.cls-1{clip-rule:evenodd;}.cls-2,.cls-5{fill-rule:evenodd;}.cls-3{clip-path:url(#clip-path);}.cls-4{fill:url(#linear-gradient-3);}.cls-5{fill:#333;}</style><linearGradient id="linear-gradient" x1="169.06" y1="154.17" x2="232.07" y2="154.17" gradientUnits="userSpaceOnUse"><stop offset="0" stop-color="#f1692a"/><stop offset="1" stop-color="#f7941d"/></linearGradient><clipPath id="clip-path" transform="translate(-169.06 -120.36)"><path class="cls-1" d="M209.49,129.85a2.44,2.44,0,0,1-3.34.89l-2.88-1.66A19.55,19.55,0,0,0,173.95,146v3.33a2.44,2.44,0,0,1-4.89,0V146a24.44,24.44,0,0,1,36.65-21.16l2.88,1.66a2.45,2.45,0,0,1,.89,3.34M204.61,170a2.44,2.44,0,0,0-3.34-.89l-2.89,1.67a9.77,9.77,0,0,1-14.66-8.47V146a9.77,9.77,0,0,1,14.66-8.46l14.14,8.16a9.77,9.77,0,0,1,0,16.93l-2.88,1.67a2.44,2.44,0,1,0,2.44,4.23l2.88-1.67a14.66,14.66,0,0,0,0-25.39l-14.13-8.16a14.66,14.66,0,0,0-22,12.7v16.32a14.66,14.66,0,0,0,22,12.7l2.88-1.67h0A2.44,2.44,0,0,0,204.61,170Zm1.11,13.47a24.44,24.44,0,0,1-36.65-21.16V159a2.44,2.44,0,1,1,4.89,0v3.33a19.55,19.55,0,0,0,29.32,16.93l14.14-8.16a19.09,19.09,0,0,0,9.77-16.93h0a19.09,19.09,0,0,0-9.78-16.93l-2.88-1.66a2.44,2.44,0,0,1,2.44-4.23h0l2.88,1.66a24.44,24.44,0,0,1,0,42.32Zm-17.1-34.15a2.44,2.44,0,1,0,4.89,0h0V147a.59.59,0,0,1,.88-.51l6.18,3.57,6.19,3.57a.59.59,0,0,1,0,1l-6.19,3.57-6.18,3.57a.59.59,0,0,1-.88-.51V159a2.44,2.44,0,1,0-4.89,0v3.33a4.89,4.89,0,0,0,7.33,4.23l14.14-8.16a4.89,4.89,0,0,0,0-8.46l-14.13-8.16a4.89,4.89,0,0,0-7.33,4.23Z"/></clipPath><linearGradient id="linear-gradient-3" x1="0" y1="33.81" x2="63.01" y2="33.81" xlink:href="#linear-gradient"/></defs><title>idram logo_rgb_for prartners (1)</title><path class="cls-2" d="M209.49,129.85a2.44,2.44,0,0,1-3.34.89l-2.88-1.66A19.55,19.55,0,0,0,173.95,146v3.33a2.44,2.44,0,0,1-4.89,0V146a24.44,24.44,0,0,1,36.65-21.16l2.88,1.66a2.45,2.45,0,0,1,.89,3.34M204.61,170a2.44,2.44,0,0,0-3.34-.89l-2.89,1.67a9.77,9.77,0,0,1-14.66-8.47V146a9.77,9.77,0,0,1,14.66-8.46l14.14,8.16a9.77,9.77,0,0,1,0,16.93l-2.88,1.67a2.44,2.44,0,1,0,2.44,4.23l2.88-1.67a14.66,14.66,0,0,0,0-25.39l-14.13-8.16a14.66,14.66,0,0,0-22,12.7v16.32a14.66,14.66,0,0,0,22,12.7l2.88-1.67h0A2.44,2.44,0,0,0,204.61,170Zm1.11,13.47a24.44,24.44,0,0,1-36.65-21.16V159a2.44,2.44,0,1,1,4.89,0v3.33a19.55,19.55,0,0,0,29.32,16.93l14.14-8.16a19.09,19.09,0,0,0,9.77-16.93h0a19.09,19.09,0,0,0-9.78-16.93l-2.88-1.66a2.44,2.44,0,0,1,2.44-4.23h0l2.88,1.66a24.44,24.44,0,0,1,0,42.32Zm-17.1-34.15a2.44,2.44,0,1,0,4.89,0h0V147a.59.59,0,0,1,.88-.51l6.18,3.57,6.19,3.57a.59.59,0,0,1,0,1l-6.19,3.57-6.18,3.57a.59.59,0,0,1-.88-.51V159a2.44,2.44,0,1,0-4.89,0v3.33a4.89,4.89,0,0,0,7.33,4.23l14.14-8.16a4.89,4.89,0,0,0,0-8.46l-14.13-8.16a4.89,4.89,0,0,0-7.33,4.23Z" transform="translate(-169.06 -120.36)"/><g class="cls-3"><rect class="cls-4" width="63.01" height="67.62"/></g><path class="cls-5" d="M250,135.25a3,3,0,1,1-3,3,3,3,0,0,1,3-3m-2.18,10.19h4.35v27h-4.35Z" transform="translate(-169.06 -120.36)"/><path class="cls-5" d="M307.36,144.76a14.12,14.12,0,0,0-9.81,3.95v-3.26H293.2v27h4.35V158.92a9.81,9.81,0,0,1,9.81-9.81Z" transform="translate(-169.06 -120.36)"/><path class="cls-5" d="M349,145.44h-4.35v27H349V158.92a9.81,9.81,0,1,1,19.62,0V172.4H373V158.92a9.81,9.81,0,1,1,19.62,0V172.4H397V158.92a14.17,14.17,0,0,0-26.15-7.55,14.17,14.17,0,0,0-21.8-2.67Z" transform="translate(-169.06 -120.36)"/><path class="cls-5" d="M282.18,135.25v13.46a14.17,14.17,0,1,0,0,20.43v3.26h4.35V135.25Zm-9.81,33.5a9.83,9.83,0,1,1,9.83-9.83A9.83,9.83,0,0,1,272.37,168.75Z" transform="translate(-169.06 -120.36)"/><path class="cls-5" d="M333.65,145.44v3.26a14.17,14.17,0,1,0,0,20.43v3.26H338v-27Zm0,13.48a9.82,9.82,0,1,1-.05-1,9.83,9.83,0,0,1,.05,1h0Z" transform="translate(-169.06 -120.36)"/></svg>