<svg id="Layer_1" data-name="Layer 1" xmlns="http://www.w3.org/2000/svg" viewBox="0 0 389.14 111.63"><defs><style>.cls-1{fill:#fff;}.cls-2{fill:#f5821e;}</style></defs><title>idram checkout white</title><path class="cls-1" d="M164.47,66.76a5.06,5.06,0,1,1-5.06,5.06v-.06a5.06,5.06,0,0,1,5.06-5m-3.72,17.41h7.43v46h-7.44Z" transform="translate(-26.25 -43.26)"/><path class="cls-1" d="M202.64,90.44a16.76,16.76,0,1,1-16.76,16.76h0a16.75,16.75,0,0,1,16.75-16.75h0m0-7.43a24.13,24.13,0,0,1,16.75,6.74v-23h7.43v63.43h-7.43v-5.57A24.18,24.18,0,1,1,202.64,83Z" transform="translate(-26.25 -43.26)"/><path class="cls-1" d="M262.38,83a24.11,24.11,0,0,0-16.75,6.74V84.19H238.2v46h7.44v-23A16.76,16.76,0,0,1,262.4,90.44Z" transform="translate(-26.25 -43.26)"/><path class="cls-1" d="M290.51,90.46a16.76,16.76,0,1,1-16.76,16.76h0a16.76,16.76,0,0,1,16.76-16.75m16.75-6.25h7.43v46h-7.43v-5.57a24.19,24.19,0,1,1,0-34.88Z" transform="translate(-26.25 -43.26)"/><path class="cls-1" d="M333.5,84.21h-7.43v46h7.43v-23a16.76,16.76,0,0,1,33.51,0v23h7.44v-23a16.76,16.76,0,0,1,33.51,0v23h7.43v-23a24.19,24.19,0,0,0-44.65-12.9,24.18,24.18,0,0,0-37.22-4.57Z" transform="translate(-26.25 -43.26)"/><path class="cls-2" d="M95.29,57.56a4.17,4.17,0,0,1-5.69,1.53h0l-4.92-2.84a32.59,32.59,0,0,0-33.38,0A32.58,32.58,0,0,0,34.6,85.14v5.69a4.18,4.18,0,0,1-8.35,0V85.14A40.79,40.79,0,0,1,47.12,49a40.78,40.78,0,0,1,41.73,0l4.91,2.84a4.18,4.18,0,0,1,1.53,5.7m-8.36,68.6a4.17,4.17,0,0,0-5.69-1.53h0l-4.92,2.84a16.69,16.69,0,0,1-25-14.46V85.14a16.68,16.68,0,0,1,25-14.44l24.13,13.94a16.69,16.69,0,0,1,0,28.9l-4.93,2.84a4.17,4.17,0,1,0,4.17,7.23l4.93-2.84a25,25,0,0,0,0-43.36L80.5,63.47A25,25,0,0,0,42.94,85.14V113a25,25,0,0,0,37.54,21.7l4.92-2.85h0a4.16,4.16,0,0,0,1.54-5.68h0Zm1.89,23a40.74,40.74,0,0,1-41.72,0A40.72,40.72,0,0,1,26.25,113v-5.68a4.17,4.17,0,0,1,8.34,0V113a32.61,32.61,0,0,0,16.68,28.91,32.62,32.62,0,0,0,33.38,0q12.06-7,24.14-13.93a32.61,32.61,0,0,0,16.69-28.91h0A32.6,32.6,0,0,0,108.8,70.19l-4.91-2.84a4.17,4.17,0,0,1,4.17-7.23h0L113,63a40.72,40.72,0,0,1,20.82,36.1A40.73,40.73,0,0,1,113,135.22ZM59.63,90.83a4.17,4.17,0,1,0,8.34,0h0v-4A1,1,0,0,1,69.48,86L80,92.12l10.56,6.1a1,1,0,0,1,0,1.74L80,106.05l-10.57,6.1a1,1,0,0,1-1.5-.88v-3.94a4.18,4.18,0,0,0-8.35,0V113a8.35,8.35,0,0,0,12.52,7.23l24.14-13.92a8.35,8.35,0,0,0,0-14.46L72.15,77.92a8.35,8.35,0,0,0-12.52,7.23Z" transform="translate(-26.25 -43.26)"/></svg>