<svg width="1024" height="1024" viewBox="0 0 1024 1024" fill="none" xmlns="http://www.w3.org/2000/svg">
<g clip-path="url(#clip0_188_706)">
<path d="M609.403 387.464L611.785 385.896L619.959 379.465L623.155 377.858L639.966 364.3C640.276 364.267 640.573 364.16 640.833 363.988C641.092 363.816 641.307 363.584 641.458 363.312L656.158 352.524L657.94 351.284C661.697 348.05 665.552 344.912 669.057 341.406C668.399 339.857 667.503 338.42 666.404 337.145C660.593 340.244 654.783 343.595 648.972 346.829L645.467 348.205L642.445 350.471C642.181 350.552 641.937 350.689 641.729 350.873C641.522 351.057 641.357 351.283 641.245 351.536L622.07 363.312L621.392 363.661L611.321 370.052C585.464 385.954 559.704 402.03 533.596 417.544C531.039 419.054 526.41 417.079 522.75 416.73C524.105 412.973 524.338 407.724 527.011 405.729C540.568 395.58 554.668 386.36 568.594 376.676L574.637 372.047L577.116 370.265L581.222 367.457C581.497 367.475 581.772 367.43 582.027 367.326C582.282 367.222 582.51 367.061 582.694 366.856L584.631 365.694L584.902 365.423L586.684 363.738L588.369 362.731L599.002 356.068L600.397 354.674L604.774 351.846C605 351.893 605.234 351.879 605.453 351.804C605.671 351.729 605.865 351.596 606.014 351.42L607.776 350.122L608.067 349.773L610.391 348.263L611.96 347.139L622.186 340.205C622.427 340.178 622.658 340.09 622.857 339.952C623.057 339.813 623.219 339.628 623.329 339.411L629.372 336.041L631.58 334.53L634.795 331.703C635.029 331.727 635.265 331.683 635.474 331.577C635.684 331.47 635.858 331.305 635.976 331.102C642.891 325.757 654.86 325.563 654.628 312.896C646.997 315.607 639.133 317.835 631.793 321.224C626.118 323.858 621.121 327.965 615.833 331.412C615.324 331.579 614.891 331.923 614.613 332.381L591.701 346.868C567.936 360.872 544.287 375.088 520.309 388.723C516.436 390.893 508.185 392.597 507.197 390.97C502.529 383.784 509.734 381.596 514.421 378.439C555.23 350.722 596.136 322.909 642.542 291.591C630.921 290.913 623.929 288.259 619.417 290.564C567.936 317.021 516.7 343.943 465.71 371.331C447.659 381.015 432.784 396.742 435.554 417.098C442.546 469.664 398.754 479.813 368.927 500.673C331.914 526.569 292.848 549.54 254.654 573.595C243.576 580.549 233.349 581.343 227.306 566.933L225.873 564.357C225.989 519.674 226.493 475.01 225.989 430.346C225.873 420.371 220.353 412.062 209.042 409.99C192.269 406.252 179.66 417.098 165.483 422.444C152.642 427.305 141.001 426.318 133.874 413.36C126.514 399.918 130 386.961 142.996 380.163C256.533 321.037 370.289 262.351 484.265 204.103C526.991 182.352 563.791 204.219 600.145 224.498L877.653 377.858C889.894 384.637 898.222 394.243 891.579 408.46C884.432 423.78 871.281 425.039 857.259 417.757C825.069 401.042 806.746 403.715 803.299 446.577C796.752 527.77 725.651 543.226 669.658 577.333C623.581 605.398 590.112 570.4 550.679 570.07C487.577 569.547 389.477 631.914 377.662 686.823C367.184 735.477 405.242 746.362 442.1 750.507C510.548 758.254 570.047 737.782 618.584 687.927L629.779 666.37C637.08 603.074 696.928 608.11 735.51 589.245C803.299 556.125 804.868 559.514 804.868 635.729C804.868 678.65 805.565 721.59 804.674 764.491C803.86 803.925 781.626 826.896 743.18 827.206C591.507 828.445 439.834 828.194 288.142 827.38C255.216 827.206 233.02 809.949 227.171 775.647C227.171 767.151 227.171 758.654 227.171 750.158C232.981 643.031 306.89 586.456 385.99 532.011C422.964 506.561 454.38 490.04 505.531 495.889C569.718 503.249 612.444 447.1 653.892 402.649C664.835 390.893 681.879 381.673 680.717 358.218C637.874 386.941 597.317 414.174 556.644 441.251C552.48 444.04 548.897 452.465 542.912 444.931C541.847 443.555 546.786 435.847 550.369 432.767C560.053 424.458 570.686 417.059 580.893 409.312L595.187 398.291L600.513 394.069L609.403 387.464Z" fill="#E0262D"/>
</g>
<defs>
<clipPath id="clip0_188_706">
<rect width="764" height="633" fill="white" transform="translate(130 195)"/>
</clipPath>
</defs>
</svg>
